<?xml version="1.0" encoding="utf-8"?>
<!-- Generator: Adobe Illustrator 24.0.1, SVG Export Plug-In . SVG Version: 6.00 Build 0)  -->
<svg version="1.1" id="Layer_1" xmlns="http://www.w3.org/2000/svg" xmlns:xlink="http://www.w3.org/1999/xlink" x="0px" y="0px"
	 viewBox="0 0 541.9 165.5" style="enable-background:new 0 0 541.9 165.5;" xml:space="preserve">
<style type="text/css">
	.st0{fill:#A359FE;}
	.st1{fill:#FFFFFF;}
</style>
<g>
	<g>
		<g>
			<g>
				<g>
					<g>
						<path d="M164.4,118.1V63.4h9.4v5.7c1.3-3.8,6.1-6.6,12.6-6.6c5.6,0,10.3,2,14,6c3.8,3.9,5.7,8.8,5.7,14.7S204.3,94,200.5,98
							c-3.8,3.9-8.5,5.9-14,5.9c-6.5,0-11.3-2.7-12.6-6.6v20.9H164.4z M193.5,91.8c2.3-2.3,3.4-5.2,3.4-8.6s-1.1-6.4-3.4-8.6
							c-2.2-2.3-4.9-3.5-8.3-3.5c-3.4,0-6.3,1.2-8.6,3.5c-2.3,2.3-3.5,5.2-3.5,8.6s1.2,6.4,3.5,8.6c2.4,2.3,5.3,3.5,8.6,3.5
							C188.5,95.3,191.3,94.1,193.5,91.8z"/>
						<path d="M211.3,103V63.4h9.3v5.9c1.9-4.2,6.2-6.7,11.8-6.7c1.1,0,2,0.1,2.8,0.2V72c-1.2-0.2-2.5-0.4-3.9-0.4
							c-6.5,0-10.7,4.1-10.7,10.6V103H211.3z"/>
						<path d="M236.2,83.2c0-5.9,2.1-10.9,6.3-14.9c4.2-4,9.3-6,15.3-6c6,0,11.1,2,15.3,6c4.2,4,6.3,9,6.3,14.9s-2.1,10.9-6.3,14.9
							c-4.2,4-9.3,6-15.3,6c-6,0-11.1-2-15.3-6C238.3,94.1,236.2,89.1,236.2,83.2z M266.5,92.1c2.4-2.4,3.5-5.3,3.5-8.9
							c0-3.5-1.2-6.4-3.5-8.8c-2.4-2.4-5.3-3.6-8.7-3.6c-3.5,0-6.4,1.2-8.8,3.6c-2.3,2.4-3.5,5.3-3.5,8.8c0,3.5,1.2,6.4,3.5,8.9
							c2.4,2.4,5.3,3.5,8.8,3.5C261.2,95.6,264.1,94.4,266.5,92.1z"/>
						<path d="M286.9,90.9c1.8,2.8,5.6,4.9,10.4,4.9c4.9,0,7.1-1.9,7.1-4.3c0-1.3-0.9-2.4-2.3-3.1c-0.9-0.5-2.5-1.1-3.7-1.5
							c-1.2-0.4-3.5-1.1-4.9-1.6c-6.4-2.3-9.7-5.5-9.7-11.1c0-3.7,1.3-6.5,4-8.6c2.7-2.1,6-3.2,10-3.2c5.6,0,9.8,2,12.8,5.8
							l-5.3,5.6c-1.7-2.2-4.3-3.3-7.7-3.3c-2.9,0-4.8,1.4-4.8,3.5c0,1.3,0.7,2,1.8,2.7c0.6,0.4,2.2,1,3.2,1.4
							c1.2,0.3,3.4,1.1,4.9,1.6c7.3,2.6,10.6,6.1,10.6,11.8c0,7.3-5.5,12.6-16.2,12.6c-7.9,0-13.8-3.1-16.3-8L286.9,90.9z"/>
						<path d="M317.8,118.1V63.4h9.4v5.7c1.3-3.8,6.1-6.6,12.6-6.6c5.6,0,10.3,2,14,6c3.8,3.9,5.7,8.8,5.7,14.7S357.7,94,353.9,98
							c-3.8,3.9-8.5,5.9-14,5.9c-6.5,0-11.3-2.7-12.6-6.6v20.9H317.8z M346.9,91.8c2.3-2.3,3.4-5.2,3.4-8.6s-1.1-6.4-3.4-8.6
							c-2.2-2.3-4.9-3.5-8.3-3.5c-3.4,0-6.3,1.2-8.6,3.5c-2.3,2.3-3.5,5.2-3.5,8.6s1.2,6.4,3.5,8.6c2.4,2.3,5.3,3.5,8.6,3.5
							C341.9,95.3,344.7,94.1,346.9,91.8z"/>
						<path d="M363,83.2c0-6.3,2-11.3,5.8-15.1c3.9-3.8,8.9-5.7,14.9-5.7c5.7,0,10.4,1.9,14,5.7c3.7,3.8,5.5,8.6,5.5,14.2
							c0,1.2-0.1,2.3-0.2,3.3h-30.8c0.3,6.3,4.9,10.4,11.9,10.4c4.1,0,7.6-1.5,10.7-4.6l5.6,5.5c-4.5,4.7-10,7.1-16.6,7.1
							c-6.2,0-11.3-1.9-15.1-5.6s-5.8-8.6-5.8-14.8V83.2z M393.6,79c0-2.4-1-4.4-3-6c-2-1.7-4.2-2.6-7-2.6c-2.9,0-5.5,0.9-7.6,2.5
							s-3.3,3.7-3.5,6.1H393.6z"/>
						<path d="M443.7,69l-5.8,6c-2.7-2.9-6.1-4.3-10-4.3c-3.5,0-6.4,1.2-8.7,3.5c-2.3,2.4-3.5,5.3-3.5,8.9c0,3.5,1.2,6.5,3.5,8.9
							c2.4,2.4,5.3,3.5,8.7,3.5c3.9,0,7.3-1.4,10-4.3l5.8,6c-4.2,4.6-9.5,6.8-15.8,6.8c-6,0-11.1-2-15.3-6c-4.2-4-6.2-9-6.2-15
							s2-10.9,6.2-14.9c4.2-4,9.3-6,15.3-6C434.2,62.2,439.5,64.5,443.7,69z"/>
						<path d="M450.7,103V72h-5.1v-8.6h5.1V48.3h9.4v15.1h8.6V72h-8.6v31H450.7z"/>
						<path d="M501.9,69.2v-5.7h9.4V103h-9.4v-5.7c-1.3,3.8-6.1,6.6-12.6,6.6c-5.6,0-10.3-2-14.1-5.9c-3.8-4-5.6-8.9-5.6-14.8
							s1.9-10.7,5.6-14.7c3.8-4,8.6-6,14.1-6C495.8,62.6,500.6,65.3,501.9,69.2z M499.1,91.8c2.4-2.3,3.5-5.2,3.5-8.6
							s-1.2-6.4-3.5-8.6c-2.3-2.3-5.2-3.5-8.6-3.5s-6.1,1.2-8.4,3.5c-2.2,2.3-3.3,5.2-3.3,8.6s1.1,6.4,3.3,8.6
							c2.3,2.3,5,3.5,8.4,3.5S496.8,94.1,499.1,91.8z"/>
					</g>
				</g>
			</g>
		</g>
	</g>
	<g>
		<path class="st0" d="M62.5,99.8c-1.7,0-3.4-0.7-4.7-2C39.7,79,44.4,55.1,58.4,41.2C76,23.7,106.8,20.4,130,33.5
			c3.1,1.8,4.2,5.6,2.4,8.7c-1.8,3-5.8,4.1-8.9,2.3c-18.3-10.3-42.3-7.9-55.9,5.6c-6.7,6.7-15.4,23.4-0.4,38.9
			c2.5,2.6,2.3,6.6-0.3,9C65.7,99.2,64.1,99.8,62.5,99.8z M91.9,120.6c9.9-3.7,16.6-10.7,18.5-19.2c0.8-3.4-1.5-6.8-5-7.6
			c-3.5-0.7-7,1.4-7.7,4.9c-0.9,4.3-4.7,7.9-10.4,10c-9.1,3.4-20.1,1.8-28.1-3.9C44.1,94,34.4,71,46.2,49.7c1.7-3.1,0.5-6.9-2.6-8.6
			c-3.2-1.7-7.1-0.5-8.8,2.6c-15.2,27.7-2.7,57.4,16.8,71.4c7.5,5.4,16.5,8.2,25.6,8.2C82.1,123.3,87.1,122.4,91.9,120.6z
			 M117.1,124.4c13.9-13.9,18.6-37.7,0.6-56.4c-2.5-2.6-6.6-2.7-9.2-0.3c-2.6,2.4-2.7,6.4-0.3,9c14.9,15.5,6.2,32.2-0.4,38.8
			c-13.5,13.4-37.3,15.8-55.4,5.6c-3.1-1.8-7.1-0.7-8.9,2.3c-1.8,3-0.7,6.9,2.4,8.7c9.5,5.4,20.2,8,30.7,8
			C92,140,106.8,134.7,117.1,124.4z M140.6,121.9c15.1-27.6,3.1-57.3-16.3-71.3c-11.5-8.3-27.2-10.4-40.4-5.5
			c-9.9,3.7-16.6,10.7-18.5,19.2c-0.8,3.4,1.5,6.8,5,7.5c3.5,0.7,7-1.4,7.7-4.9c0.9-4.3,4.7-7.9,10.4-10c9-3.3,19.8-2.1,27.7,3.6
			c14.9,10.8,24.6,34,12.9,55.3c-1.7,3.1-0.5,6.9,2.6,8.6c1,0.5,2,0.8,3.1,0.8C137.2,125.2,139.4,124,140.6,121.9z"/>
	</g>
</g>
</svg>
